# xmcd
#
# Track frame offsets:
#	150
#	5759
#	35630
#	64783
#	91525
#	104769
#	118141
#	143267
#	154738
#	174387
#	191712
#	204120
#	221518
#	237782
#	254697
#	270521
#
# Disc length: 3783 seconds
#
# Revision: 1
# Processed by: cddbd v1.5.1PL2 Copyright (c) Steve Scherf et al.
# Submitted via: audiograbber 1.83.01
#
DISCID=db0ec510
DTITLE=Alebo - Live
DYEAR=1997
DGENRE=Blues
TTITLE0=Introduction
TTITLE1=Aint got wings
TTITLE2=You're my baby
TTITLE3=House of the rising sun
TTITLE4=Calm surface ripple
TTITLE5=Blackbird
TTITLE6=Morning star
TTITLE7=Yakety axe
TTITLE8=In the midnight hour
TTITLE9=Unnen
TTITLE10=My baby left me
TTITLE11=Many rivers to cross
TTITLE12=Wittrock's boogie
TTITLE13=San fransisco bay blues
TTITLE14=Stealin
TTITLE15=Li'l Liza Jane
EXTD=Krölle-Erik, Liv Skotte, Björn Linder, Stina Andersson, Morten Wittrock li
EXTD=ve at the Alebo Inn, Unnaryd, Sweden.
EXTT0=
EXTT1=
EXTT2=
EXTT3=
EXTT4=
EXTT5=
EXTT6=
EXTT7=
EXTT8=
EXTT9=
EXTT10=
EXTT11=
EXTT12=
EXTT13=
EXTT14=
EXTT15=
PLAYORDER=
